<svg id="Logos" xmlns="http://www.w3.org/2000/svg" xmlns:xlink="http://www.w3.org/1999/xlink" viewBox="0 0 626.95 120"><defs><style>.cls-1,.cls-2,.cls-3,.cls-4{fill-rule:evenodd;}.cls-1{fill:url(#radial-gradient);}.cls-2{fill:#3276a3;}.cls-3{fill:#286a8f;}.cls-4{fill:#52a0d8;}.cls-5{fill:#434343;}</style><radialGradient id="radial-gradient" cx="106.19" cy="1051.8" r="1.2" gradientTransform="matrix(47.1, 5.37, 5.37, -47.1, -10553.87, 49051.02)" gradientUnits="userSpaceOnUse"><stop offset="0.3" stop-color="#fce965"/><stop offset="1" stop-color="#fcb42d"/></radialGradient></defs><g id="Logo_Wordmark_-_Full_Color" data-name="Logo + Wordmark - Full Color"><path class="cls-1" d="M167.87,36.71c-5.83,3.68-9.93,5.7-14.79,8.62C124.3,62.64,96.68,82,75.22,107.45L65,120,33.33,69.74c7.07,5.63,24.7,21.44,31.84,25L88.39,77.24C104.62,65.78,150.36,41,167.87,36.71Z"/><path class="cls-2" d="M52.71,79.23l-.53-.41C45.42,54,30.3,29.68,12.78,10.76l15.29-.29C40.64,29.76,52.34,55.74,52.71,79.23Z"/><path class="cls-3" d="M58.19,81.51C57,54.78,52.07,28,28.81.05l95.08,0c5.34,6,11.55,41.54,11,41.92a12.23,12.23,0,0,0-1.19.86c-.13-.18-4.18-16.44-5.44-20.1s-1.28-4.55-2.93-5.23C119.54,15,119.15,15.1,114.68,10c-.29-.35-.64-.89-1-1.24s-.78-.32-1.73-.36c-6-.2-17.62.27-22.27.25q-13.23,0-26.44-.08c-3.08,5-3.51,5.83-9.34,8.11,1,5.94,6.3,15.09,9.38,32.13a148.52,148.52,0,0,1,2.13,39.06l-7.21-5.56C58.21,82.07,58.2,81.8,58.19,81.51Z"/><path class="cls-4" d="M16.65,27.48c11.11,11.79,26,31.23,28.61,47.69l-.49-.34C35.85,57.61,15.32,39.8,0,28.25l.55,0,14.28-.67Z"/><path class="cls-5" d="M438,62.22a16.74,16.74,0,0,0,12.16,5.16c4.47,0,6.65-2.12,6.65-4.3,0-2.86-3.33-3.84-7.74-4.87-6.25-1.44-14.28-3.15-14.28-11.7,0-6.36,5.5-11.52,14.51-11.52,6.07,0,11.12,1.83,14.91,5.33l-4.53,6a16.32,16.32,0,0,0-10.95-4.18c-3.66,0-5.61,1.6-5.61,3.89,0,2.58,3.21,3.38,7.63,4.42,6.3,1.44,14.33,3.33,14.33,11.81,0,7-5,12.27-15.3,12.27-7.35,0-12.62-2.47-16.23-6.08Z"/><path class="cls-5" d="M483.33,45.42c5.68,0,9.11,2.47,10.95,5l-4.76,4.42a6.86,6.86,0,0,0-5.84-3c-4.42,0-7.51,3.21-7.51,8S479.26,68,483.68,68a7,7,0,0,0,5.84-3l4.76,4.42c-1.84,2.58-5.27,5-10.95,5-8.54,0-14.67-6-14.67-14.57S474.79,45.42,483.33,45.42Z"/><path class="cls-5" d="M517.79,56.94c0-3.84-2-5-5.16-5a8,8,0,0,0-6.3,3.27V73.8H499V35.56h7.29V49.72a12.81,12.81,0,0,1,9.75-4.3c6.07,0,9,3.33,9,8.72V73.8H517.8V56.94Z"/><path class="cls-5" d="M530.52,59.92c0-7.85,5.51-14.5,14.62-14.5s14.68,6.65,14.68,14.5-5.5,14.57-14.68,14.57S530.52,67.84,530.52,59.92Zm21.73,0c0-4.3-2.58-8-7.12-8s-7,3.72-7,8,2.52,8.09,7,8.09S552.25,64.28,552.25,59.92Z"/><path class="cls-5" d="M565.21,35.56h7.28V73.8h-7.28Z"/><path class="cls-5" d="M596.33,70.93a11.44,11.44,0,0,1-8.76,3.56c-4.42,0-9.63-3-9.63-9.18,0-6.48,5.22-8.83,9.63-8.83,3.66,0,6.93,1.15,8.76,3.38V56c0-2.82-2.4-4.65-6.07-4.65a11.64,11.64,0,0,0-8.08,3.27l-2.76-4.87a18.12,18.12,0,0,1,12.1-4.36c6.31,0,12.1,2.52,12.1,10.49V73.78h-7.29Zm0-7.22c-1.2-1.61-3.49-2.41-5.84-2.41-2.86,0-5.22,1.54-5.22,4.18s2.35,4.07,5.22,4.07c2.35,0,4.65-.8,5.84-2.41Z"/><path class="cls-5" d="M610.84,46.11h7.28V49.9A11.84,11.84,0,0,1,627,45.48v7.11a9.31,9.31,0,0,0-2-.17c-2.41,0-5.62,1.32-6.83,3.09V73.8h-7.28Z"/><path class="cls-5" d="M195.47,64.8a16.18,16.18,0,0,0,12,5.45c6.82,0,9-3.67,9-6.59,0-4.59-4.64-5.85-9.69-7.22-6.13-1.61-13-3.33-13-10.84C193.86,39.29,199.48,35,207,35c5.85,0,10.37,1.95,13.58,5.33l-2.86,3.49a14.62,14.62,0,0,0-11.07-4.58c-4.58,0-7.85,2.46-7.85,6.07,0,3.84,4.42,5,9.28,6.31,6.25,1.66,13.35,3.62,13.35,11.64,0,5.56-3.78,11.24-14.11,11.24-6.64,0-11.52-2.53-14.67-6.08Z"/><path class="cls-5" d="M240.42,45.42c8.37,0,13.29,6.54,13.29,14.85v1.09H231.29c.35,5.22,4,9.57,10,9.57a12.09,12.09,0,0,0,8.54-3.5l2.06,2.82a15.07,15.07,0,0,1-11,4.24c-8.19,0-14.11-5.91-14.11-14.57C226.77,51.9,232.5,45.42,240.42,45.42ZM231.3,58.21h18.17c-.06-4.13-2.81-9.24-9.11-9.24C234.45,49,231.53,54,231.3,58.21Z"/><path class="cls-5" d="M294.08,55c0-3.5-1.55-5.74-5.11-5.74a9.71,9.71,0,0,0-7.34,4.24V73.79h-4.3V55c0-3.5-1.48-5.74-5.1-5.74-2.81,0-5.78,2.06-7.28,4.3V73.79h-4.3V46.11H265v4a12,12,0,0,1,8.95-4.69c4.24,0,6.64,2.29,7.45,5.16a11.61,11.61,0,0,1,9.28-5.16c5,0,7.74,2.81,7.74,8.37v20h-4.3V55Z"/><path class="cls-5" d="M324.3,70.64a12,12,0,0,1-9.18,3.85c-4.71,0-9.69-3.15-9.69-9.18,0-6.19,5-9.11,9.69-9.11A11.62,11.62,0,0,1,324.3,60V55c0-3.73-3-5.85-7-5.85A10.94,10.94,0,0,0,308.82,53l-2-3a14.53,14.53,0,0,1,11.07-4.59c5.84,0,10.72,2.63,10.72,9.34v19h-4.3Zm0-7.9a9.3,9.3,0,0,0-7.63-3.44c-4,0-6.83,2.53-6.83,6.07s2.81,6,6.83,6A9.3,9.3,0,0,0,324.3,68Z"/><path class="cls-5" d="M355.89,55.68c0-4.87-2.47-6.42-6.19-6.42a10.66,10.66,0,0,0-8.19,4.3V73.8h-4.3V46.11h4.3v4a13.77,13.77,0,0,1,9.85-4.69c5.8,0,8.83,2.92,8.83,9V73.82h-4.3Z"/><path class="cls-5" d="M369.65,68V49.89h-4.58V46.11h4.58V38.54H374v7.57h5.62V49.9H374V67.1c0,2.06.93,3.55,2.81,3.55a4.1,4.1,0,0,0,2.92-1.15l1.26,3.21a7.05,7.05,0,0,1-5.17,1.78C371.71,74.49,369.65,72.14,369.65,68Z"/><path class="cls-5" d="M384.9,38.54a2.9,2.9,0,0,1,5.79,0,2.9,2.9,0,1,1-5.79,0Zm.74,7.57h4.3V73.8h-4.3Z"/><path class="cls-5" d="M410.76,45.42a11.84,11.84,0,0,1,10.14,4.81L418,52.87A8.19,8.19,0,0,0,411,49.25c-5.91,0-9.57,4.53-9.57,10.66s3.66,10.72,9.57,10.72A8.35,8.35,0,0,0,418,67l2.86,2.64a11.84,11.84,0,0,1-10.14,4.81c-8.25,0-13.82-6.31-13.82-14.56S402.51,45.42,410.76,45.42Z"/></g></svg>