<?xml version="1.0" encoding="UTF-8"?><svg xmlns="http://www.w3.org/2000/svg" xmlns:xlink="http://www.w3.org/1999/xlink" fill-opacity="1" color-rendering="auto" color-interpolation="auto" text-rendering="auto" stroke="black" stroke-linecap="square" width="722" stroke-miterlimit="10" shape-rendering="auto" stroke-opacity="1" fill="black" stroke-dasharray="none" font-weight="normal" stroke-width="1" height="530" font-family="'Dialog'" font-style="normal" stroke-linejoin="miter" font-size="12px" stroke-dashoffset="0" image-rendering="auto">
  <!--Generated by ySVG 2.6-->
  <defs id="genericDefs"/>
  <g>
    <defs id="defs1">
      <clipPath clipPathUnits="userSpaceOnUse" id="clipPath1">
        <path d="M0 0 L722 0 L722 530 L0 530 L0 0 Z"/>
      </clipPath>
      <clipPath clipPathUnits="userSpaceOnUse" id="clipPath2">
        <path d="M189 42 L911 42 L911 572 L189 572 L189 42 Z"/>
      </clipPath>
      <clipPath clipPathUnits="userSpaceOnUse" id="clipPath3">
        <path d="M374 57 L374 160 L634 160 L634 57 Z"/>
      </clipPath>
      <clipPath clipPathUnits="userSpaceOnUse" id="clipPath4">
        <path d="M374 196 L374 287 L634 287 L634 196 Z"/>
      </clipPath>
      <clipPath clipPathUnits="userSpaceOnUse" id="clipPath5">
        <path d="M781 75 L781 142 L896 142 L896 75 Z"/>
      </clipPath>
      <clipPath clipPathUnits="userSpaceOnUse" id="clipPath6">
        <path d="M204 340 L204 374 L464 374 L464 340 Z"/>
      </clipPath>
      <clipPath clipPathUnits="userSpaceOnUse" id="clipPath7">
        <path d="M612 523 L612 557 L872 557 L872 523 Z"/>
      </clipPath>
      <clipPath clipPathUnits="userSpaceOnUse" id="clipPath8">
        <path d="M607 340 L607 443 L867 443 L867 340 Z"/>
      </clipPath>
    </defs>
    <g fill="white" text-rendering="geometricPrecision" shape-rendering="geometricPrecision" transform="translate(-189,-42)" stroke="white">
      <rect x="189" width="722" height="530" y="42" clip-path="url(#clipPath2)" stroke="none"/>
    </g>
    <g fill="silver" text-rendering="geometricPrecision" shape-rendering="geometricPrecision" transform="matrix(1,0,0,1,-189,-42)" stroke="silver">
      <rect x="375" width="258" height="101" y="58" clip-path="url(#clipPath2)" stroke="none"/>
      <rect x="374" y="57" clip-path="url(#clipPath2)" fill="white" width="1" height="103" stroke="none"/>
      <rect x="375" y="57" clip-path="url(#clipPath2)" fill="white" width="258" height="1" stroke="none"/>
      <rect x="375" y="159" clip-path="url(#clipPath2)" fill="rgb(134,134,134)" width="259" height="1" stroke="none"/>
      <rect x="633" y="57" clip-path="url(#clipPath2)" fill="rgb(134,134,134)" width="1" height="102" stroke="none"/>
    </g>
    <g font-size="13px" stroke-linecap="butt" transform="matrix(1,0,0,1,-189,-42)" text-rendering="geometricPrecision" font-family="sans-serif" shape-rendering="geometricPrecision" font-weight="bold" stroke-miterlimit="1.45">
      <text x="449.5896" xml:space="preserve" y="75.0698" clip-path="url(#clipPath3)" stroke="none">DocumentService</text>
    </g>
    <g text-rendering="geometricPrecision" shape-rendering="geometricPrecision" transform="matrix(1,0,0,1,-189,-42)">
      <line y2="82" fill="none" x1="375" clip-path="url(#clipPath3)" x2="633" y1="82"/>
      <text stroke-linecap="butt" x="379.5" y="99.9907" clip-path="url(#clipPath3)" font-family="sans-serif" stroke="none" stroke-miterlimit="1.45" xml:space="preserve">session: DocumentServiceSession</text>
      <line y2="107" fill="none" x1="375" clip-path="url(#clipPath3)" x2="633" y1="107"/>
      <text stroke-linecap="butt" x="379.5" y="124.6919" clip-path="url(#clipPath3)" font-family="sans-serif" stroke="none" stroke-miterlimit="1.45" xml:space="preserve">__init__(app: flask.Flask) -&gt; None</text>
      <text stroke-linecap="butt" x="379.5" y="139.3931" clip-path="url(#clipPath3)" font-family="sans-serif" stroke="none" stroke-miterlimit="1.45" xml:space="preserve">init_app(app: flask.Flask) -&gt; None</text>
      <text stroke-linecap="butt" x="379.5" y="154.0942" clip-path="url(#clipPath3)" font-family="sans-serif" stroke="none" stroke-miterlimit="1.45" xml:space="preserve">get_session() -&gt; DocumentServiceSession</text>
      <rect x="375" y="197" clip-path="url(#clipPath2)" fill="silver" width="258" height="89" stroke="none"/>
      <rect x="374" y="196" clip-path="url(#clipPath2)" fill="white" width="1" height="91" stroke="none"/>
      <rect x="375" y="196" clip-path="url(#clipPath2)" fill="white" width="258" height="1" stroke="none"/>
      <rect x="375" y="286" clip-path="url(#clipPath2)" fill="rgb(134,134,134)" width="259" height="1" stroke="none"/>
      <rect x="633" y="196" clip-path="url(#clipPath2)" fill="rgb(134,134,134)" width="1" height="90" stroke="none"/>
    </g>
    <g font-size="13px" stroke-linecap="butt" transform="matrix(1,0,0,1,-189,-42)" text-rendering="geometricPrecision" font-family="sans-serif" shape-rendering="geometricPrecision" font-weight="bold" stroke-miterlimit="1.45">
      <text x="424.6624" xml:space="preserve" y="214.0698" clip-path="url(#clipPath4)" stroke="none">DocumentServiceSession</text>
    </g>
    <g text-rendering="geometricPrecision" shape-rendering="geometricPrecision" transform="matrix(1,0,0,1,-189,-42)">
      <line y2="221" fill="none" x1="375" clip-path="url(#clipPath4)" x2="633" y1="221"/>
      <text stroke-linecap="butt" x="379.5" y="238.9907" clip-path="url(#clipPath4)" font-family="sans-serif" stroke="none" stroke-miterlimit="1.45" xml:space="preserve">session: sqlalchemy.orm.session.Session</text>
      <line y2="246" fill="none" x1="375" clip-path="url(#clipPath4)" x2="633" y1="246"/>
      <text stroke-linecap="butt" x="379.5" y="263.6919" clip-path="url(#clipPath4)" font-family="sans-serif" stroke="none" stroke-miterlimit="1.45" xml:space="preserve">read(document_id: str) -&gt; dict</text>
      <text stroke-linecap="butt" x="379.5" y="278.3931" clip-path="url(#clipPath4)" font-family="sans-serif" stroke="none" stroke-miterlimit="1.45" xml:space="preserve">...</text>
      <rect x="782" y="76" clip-path="url(#clipPath2)" fill="silver" width="113" height="65" stroke="none"/>
      <rect x="781" y="75" clip-path="url(#clipPath2)" fill="white" width="1" height="67" stroke="none"/>
      <rect x="782" y="75" clip-path="url(#clipPath2)" fill="white" width="113" height="1" stroke="none"/>
      <rect x="782" y="141" clip-path="url(#clipPath2)" fill="rgb(134,134,134)" width="114" height="1" stroke="none"/>
      <rect x="895" y="75" clip-path="url(#clipPath2)" fill="rgb(134,134,134)" width="1" height="66" stroke="none"/>
    </g>
    <g font-size="13px" stroke-linecap="butt" transform="matrix(1,0,0,1,-189,-42)" text-rendering="geometricPrecision" font-family="sans-serif" shape-rendering="geometricPrecision" font-weight="bold" stroke-miterlimit="1.45">
      <text x="805.2573" xml:space="preserve" y="93.0698" clip-path="url(#clipPath5)" stroke="none">flask.Flask</text>
    </g>
    <g text-rendering="geometricPrecision" shape-rendering="geometricPrecision" transform="matrix(1,0,0,1,-189,-42)">
      <line y2="100" fill="none" x1="782" clip-path="url(#clipPath5)" x2="895" y1="100"/>
      <text stroke-linecap="butt" x="786" y="117.9907" clip-path="url(#clipPath5)" font-family="sans-serif" stroke="none" stroke-miterlimit="1.45" xml:space="preserve">config</text>
      <line y2="125" fill="none" x1="782" clip-path="url(#clipPath5)" x2="895" y1="125"/>
      <rect x="205" y="341" clip-path="url(#clipPath2)" fill="silver" width="258" height="32" stroke="none"/>
      <rect x="204" y="340" clip-path="url(#clipPath2)" fill="white" width="1" height="34" stroke="none"/>
      <rect x="205" y="340" clip-path="url(#clipPath2)" fill="white" width="258" height="1" stroke="none"/>
      <rect x="205" y="373" clip-path="url(#clipPath2)" fill="rgb(134,134,134)" width="259" height="1" stroke="none"/>
      <rect x="463" y="340" clip-path="url(#clipPath2)" fill="rgb(134,134,134)" width="1" height="33" stroke="none"/>
    </g>
    <g font-size="13px" stroke-linecap="butt" transform="matrix(1,0,0,1,-189,-42)" text-rendering="geometricPrecision" font-family="sans-serif" shape-rendering="geometricPrecision" font-weight="bold" stroke-miterlimit="1.45">
      <text x="232.2615" xml:space="preserve" y="358.0698" clip-path="url(#clipPath6)" stroke="none">sqlalchemy.orm.session.Session</text>
    </g>
    <g fill="silver" text-rendering="geometricPrecision" shape-rendering="geometricPrecision" transform="matrix(1,0,0,1,-189,-42)" stroke="silver">
      <rect x="613" width="258" height="32" y="524" clip-path="url(#clipPath2)" stroke="none"/>
      <rect x="612" y="523" clip-path="url(#clipPath2)" fill="white" width="1" height="34" stroke="none"/>
      <rect x="613" y="523" clip-path="url(#clipPath2)" fill="white" width="258" height="1" stroke="none"/>
      <rect x="613" y="556" clip-path="url(#clipPath2)" fill="rgb(134,134,134)" width="259" height="1" stroke="none"/>
      <rect x="871" y="523" clip-path="url(#clipPath2)" fill="rgb(134,134,134)" width="1" height="33" stroke="none"/>
    </g>
    <g font-size="13px" stroke-linecap="butt" transform="matrix(1,0,0,1,-189,-42)" text-rendering="geometricPrecision" font-family="sans-serif" shape-rendering="geometricPrecision" font-weight="bold" stroke-miterlimit="1.45">
      <text x="654.6992" xml:space="preserve" y="541.0698" clip-path="url(#clipPath7)" stroke="none">sqlalchemy declarative base</text>
    </g>
    <g fill="silver" text-rendering="geometricPrecision" shape-rendering="geometricPrecision" transform="matrix(1,0,0,1,-189,-42)" stroke="silver">
      <rect x="608" width="258" height="101" y="341" clip-path="url(#clipPath2)" stroke="none"/>
      <rect x="607" y="340" clip-path="url(#clipPath2)" fill="white" width="1" height="103" stroke="none"/>
      <rect x="608" y="340" clip-path="url(#clipPath2)" fill="white" width="258" height="1" stroke="none"/>
      <rect x="608" y="442" clip-path="url(#clipPath2)" fill="rgb(134,134,134)" width="259" height="1" stroke="none"/>
      <rect x="866" y="340" clip-path="url(#clipPath2)" fill="rgb(134,134,134)" width="1" height="102" stroke="none"/>
    </g>
    <g font-size="13px" stroke-linecap="butt" transform="matrix(1,0,0,1,-189,-42)" text-rendering="geometricPrecision" font-family="sans-serif" shape-rendering="geometricPrecision" font-weight="bold" stroke-miterlimit="1.45">
      <text x="705.7205" xml:space="preserve" y="358.0698" clip-path="url(#clipPath8)" stroke="none">Document</text>
    </g>
    <g text-rendering="geometricPrecision" shape-rendering="geometricPrecision" transform="matrix(1,0,0,1,-189,-42)">
      <line y2="365" fill="none" x1="608" clip-path="url(#clipPath8)" x2="866" y1="365"/>
      <text stroke-linecap="butt" x="612.5" y="382.9907" clip-path="url(#clipPath8)" font-family="sans-serif" stroke="none" stroke-miterlimit="1.45" xml:space="preserve">id</text>
      <text stroke-linecap="butt" x="612.5" y="397.6919" clip-path="url(#clipPath8)" font-family="sans-serif" stroke="none" stroke-miterlimit="1.45" xml:space="preserve">title</text>
      <text stroke-linecap="butt" x="612.5" y="412.3931" clip-path="url(#clipPath8)" font-family="sans-serif" stroke="none" stroke-miterlimit="1.45" xml:space="preserve">...</text>
      <line y2="420" fill="none" x1="608" clip-path="url(#clipPath8)" x2="866" y1="420"/>
      <path fill="none" stroke-miterlimit="1.45" d="M504.5 160.0352 L504.5 187.9649" clip-path="url(#clipPath2)" stroke-linecap="butt"/>
      <path stroke-miterlimit="1.45" d="M504.5 195.9649 L509.5 183.9649 L504.5 186.9649 L499.5 183.9649 Z" clip-path="url(#clipPath2)" stroke-linecap="butt" stroke="none"/>
      <text stroke-linecap="butt" x="443.8145" y="182.7139" clip-path="url(#clipPath2)" font-family="sans-serif" stroke="none" stroke-miterlimit="1.45" xml:space="preserve">Instantiates</text>
      <path fill="none" stroke-miterlimit="1.45" d="M634.5358 108.5 L772.9642 108.5" clip-path="url(#clipPath2)" stroke-linecap="butt"/>
      <path stroke-miterlimit="1.45" d="M780.9642 108.5 L768.9642 103.5 L771.9642 108.5 L768.9642 113.5 Z" clip-path="url(#clipPath2)" stroke-linecap="butt" stroke="none"/>
      <text stroke-linecap="butt" x="651.0488" y="128.5127" clip-path="url(#clipPath2)" font-family="sans-serif" stroke="none" stroke-miterlimit="1.45" xml:space="preserve">Reads configuration, </text>
      <text stroke-linecap="butt" x="653.7236" y="143.2139" clip-path="url(#clipPath2)" font-family="sans-serif" stroke="none" stroke-miterlimit="1.45" xml:space="preserve">gets/sets session in </text>
      <text stroke-linecap="butt" x="658.0508" y="157.915" clip-path="url(#clipPath2)" font-family="sans-serif" stroke="none" stroke-miterlimit="1.45" xml:space="preserve">application context</text>
      <path fill="none" stroke-miterlimit="1.45" d="M419.5 287.0259 L419.5 331.9741" clip-path="url(#clipPath2)" stroke-linecap="butt"/>
      <path stroke-miterlimit="1.45" d="M419.5 339.9741 L424.5 327.9741 L419.5 330.9741 L414.5 327.9741 Z" clip-path="url(#clipPath2)" stroke-linecap="butt" stroke="none"/>
      <text stroke-linecap="butt" x="358.8145" y="318.2139" clip-path="url(#clipPath2)" font-family="sans-serif" stroke="none" stroke-miterlimit="1.45" xml:space="preserve">Instantiates</text>
      <path fill="none" stroke-miterlimit="1.45" d="M621 287.0259 L621 331.9741" clip-path="url(#clipPath2)" stroke-linecap="butt"/>
      <path stroke-miterlimit="1.45" d="M621 339.9741 L626 327.9741 L621 330.9741 L616 327.9741 Z" clip-path="url(#clipPath2)" stroke-linecap="butt" stroke="none"/>
      <path fill="none" stroke-miterlimit="1.45" stroke-dasharray="6,2" d="M740 443.0391 L740 507.961" clip-path="url(#clipPath2)" stroke-linecap="butt"/>
    </g>
    <g stroke-linecap="butt" transform="matrix(1,0,0,1,-189,-42)" fill="white" text-rendering="geometricPrecision" shape-rendering="geometricPrecision" stroke-dasharray="6,2" stroke="white" stroke-miterlimit="1.45">
      <path d="M740 522.9609 L746 506.9609 L734 506.9609 Z" stroke="none" clip-path="url(#clipPath2)"/>
      <path fill="none" stroke-dasharray="none" d="M740 522.9609 L746 506.9609 L734 506.9609 Z" clip-path="url(#clipPath2)" stroke="black"/>
    </g>
  </g>
</svg>
