<?xml version="1.0" encoding="UTF-8"?>
<svg id="a" data-name="Layer 1" xmlns="http://www.w3.org/2000/svg" viewBox="0 0 246.98 111.12">
  <g id="b" data-name="Primary Darkmode">
    <path d="M69.41,32.88c1.86,0,3.1,1.24,3.99,3.45,1.06-2.21,2.57-3.45,4.69-3.45h14.88c2.3,0,4.07,1.86,4.07,4.07v7.83c0,2.66-1.33,4.07-4.07,4.07s-4.07-1.42-4.07-4.07v-3.75h-10.54c-1.77,0-2.66.97-2.66,2.75v27.19h10.01c2.66,0,4.07,1.33,4.07,4.07s-1.42,4.07-4.07,4.07h-26.39c-2.66,0-3.99-1.33-3.99-4.07s1.33-4.07,3.99-4.07h8.24v-29.93h-7.26c-2.66,0-3.99-1.33-3.99-4.07s1.33-4.07,3.99-4.07h9.12Z" fill="#afa497"/>
    <path d="M181.07,32.88c2.66,0,4.07,1.42,4.07,4.07v34.01h10.1c2.75,0,4.07,1.33,4.07,4.07s-1.33,4.07-4.07,4.07h-28.6c-2.66,0-4.07-1.33-4.07-4.07s1.42-4.07,4.07-4.07h10.36v-29.93h-8.53c-2.74,0-4.07-1.33-4.07-4.07s1.33-4.07,4.07-4.07h12.61ZM185.29,15.27c0,3.19-2.71,5.82-5.82,5.82s-5.9-2.63-5.9-5.82,2.71-5.82,5.9-5.82,5.82,2.63,5.82,5.82Z" fill="#afa497"/>
    <path d="M246.98,36.96c0,.53-.09,1.15-.27,1.59l-14.88,38.08c-.71,1.68-1.95,2.48-3.72,2.48h-5.93c-1.86,0-3.19-.8-3.81-2.48l-15.05-38.08c-.27-.44-.36-1.06-.36-1.59,0-2.3,1.86-4.07,4.16-4.07,1.86,0,3.01.97,3.72,2.66l14.35,36.13,13.9-36.13c.71-1.68,1.86-2.66,3.72-2.66,2.3,0,4.16,1.77,4.16,4.07Z" fill="#afa497"/>
    <path d="M127.98,55.61l-32.74,38.85c-1.29,1.37-2.08,3.78-1.36,5.5.75,1.8,2.46,2.91,4.4,2.91,1.09,0,1.99-.38,3.16-1.56l40.19-42.71c1.6-1.69,1.62-4.33.04-6.04l-13.68,3.05Z" fill="#aa142d"/>
    <path d="M127.98,55.61l31.19-38.27c1.49-1.99,2.2-3.03,1.49-4.72-.74-1.77-2.59-3.16-4.48-3.16h0c-1.06,0-1.72.09-3.01,1.11l-38.63,41.76c-1.72,1.84-1.71,4.7.02,6.53l47.79,51.07c1.02,1.05,2.05,1.19,3.14,1.19,1.93,0,3.19-1.14,4.03-2.82.72-1.73-.08-3.44-1.4-5.23l-40.12-47.46" fill="#afa497"/>
    <path d="M141.67,52.56L95,2.13S93.29.04,91.48,0s-3.6,1.02-4.34,2.79c-.7,1.69-.2,2.88,1.35,5.1l40.09,48.42" fill="#aa142d"/>
    <path d="M32.45,32.88c5.02,0,8.21,3.31,8.21,8.4v37.83H5.14c-2.88,0-5.14-1.87-5.14-4.93v-13.03c0-4.07,2.83-7.35,7-8.15l25.51-3.57v-8.41H4.14c-2.05,0-4.14-1.45-4.14-4.07,0-2.87,2.14-4.07,4.36-4.07h28.09ZM32.5,70.97v-13.29l-24.35,3.4v9.9h24.35Z" fill="#afa497"/>
  </g>
</svg>