<svg id="Layer_1" data-name="Layer 1" xmlns="http://www.w3.org/2000/svg" viewBox="0 0 285.035 266.192"><g id="freight_text_black_ital" data-name="freight text black ital"><path d="M1577.965,830.929c-40.108,10.086-79.641-10.273-91.938-59.176-13.182-52.422,7.942-111.224,57.9-123.787,40.106-10.085,79.465,11.066,91.762,59.968C1648.694,759.652,1628.626,818.19,1577.965,830.929Zm-27.218-165.895c-34.61,8.124-35.821,71.4-29.187,97.783s26.2,53.293,48.881,46.65c34.118-9.994,37.054-66.387,30.419-92.774S1574.567,659.442,1550.747,665.034Z" transform="translate(-1354.509 -614.126)"/><path d="M1414.2,648.194c15.4-8.224,34.767,5.686,31.563,28.138-2.356,16.515-11.581,31.4-34.274,58.9l10.407,10.554a169.57,169.57,0,0,1,23.521-15.137c23.421-11.893,65.782-7.9,75.674,30.07.3,1.16.576,2.312.83,3.458,4.865,18.146,15.758,36.241,29.5,43.254,15.474-30.158,17.722-64.707,1.92-93.4-16.4-29.781-50.544-31.059-76.914-19.836a88.808,88.808,0,0,0-22.137,13.757l-.994-2.335c23.116-24.426,26.236-42.763,21.321-59.476-10.064-34.217-49.611-40.908-70.917-20.544-11.513,11-17.256,33.658-19.393,53.07l9.8,10.263C1397.2,673.746,1399.8,655.886,1414.2,648.194Z" transform="translate(-1354.509 -614.126)" fill="#b31b1b"/><path d="M1514.9,818.845c-21.563,39.5-76.212,54.915-106.757,24.8a1.293,1.293,0,0,0,.391-.475c.5-18.562-18.037-39.947-39.065-31-13.019,5.541-18.159,20.741-12.946,33.5,9.072,22.208,32.87,30.346,50.334,32.943,55.691,8.279,102.026-14.539,129.667-48.437A68.226,68.226,0,0,1,1514.9,818.845Z" transform="translate(-1354.509 -614.126)" fill="#b31b1b"/></g></svg>