<?xml version="1.0" standalone="no"?>
<!DOCTYPE svg PUBLIC "-//W3C//DTD SVG 20010904//EN"
 "http://www.w3.org/TR/2001/REC-SVG-20010904/DTD/svg10.dtd">
<svg version="1.0" xmlns="http://www.w3.org/2000/svg"
 width="792.000000pt" height="792.000000pt" viewBox="0 0 792.000000 792.000000"
 preserveAspectRatio="xMidYMid meet">
<metadata>
Created by potrace 1.14, written by Peter Selinger 2001-2017
</metadata>
<g transform="translate(0.000000,792.000000) scale(0.100000,-0.100000)"
fill="#000000" stroke="none">
<path d="M1285 7906 c-90 -30 -153 -77 -199 -151 -74 -117 -73 -216 1 -337 13
-21 23 -42 23 -48 0 -5 4 -10 8 -10 4 0 16 -15 27 -32 10 -18 28 -42 38 -53
10 -11 31 -36 45 -55 15 -19 29 -37 32 -40 6 -6 149 -177 167 -200 11 -14 153
-186 212 -257 14 -17 40 -48 56 -69 17 -20 35 -42 40 -48 6 -6 23 -27 38 -46
58 -72 103 -124 120 -142 9 -10 14 -18 10 -18 -5 0 -3 -4 3 -8 6 -4 58 -63
114 -132 56 -69 106 -127 109 -130 4 -3 20 -23 37 -45 16 -22 34 -44 40 -50 6
-5 42 -48 80 -95 38 -47 73 -88 79 -92 5 -4 7 -8 3 -8 -4 0 8 -16 27 -35 19
-19 35 -37 35 -40 0 -4 24 -34 55 -69 6 -6 30 -36 55 -66 25 -30 49 -60 55
-66 5 -6 24 -28 40 -48 17 -21 42 -52 56 -70 49 -58 424 -512 459 -556 19 -24
49 -59 67 -79 17 -20 29 -38 27 -41 -3 -2 -8 1 -13 8 -5 8 -33 -12 -89 -65
-46 -43 -123 -116 -173 -163 -172 -161 -186 -175 -233 -239 -78 -107 -135
-257 -134 -351 0 -19 -1 -39 -3 -45 -6 -21 13 -122 33 -180 46 -130 90 -183
378 -455 78 -74 164 -155 190 -180 l48 -46 -41 -50 c-23 -27 -48 -56 -55 -64
-7 -8 -58 -71 -113 -140 -56 -69 -118 -145 -139 -170 -21 -25 -49 -58 -61 -75
-13 -16 -37 -46 -53 -66 -17 -20 -41 -49 -53 -65 -12 -16 -34 -42 -48 -59 -15
-16 -39 -45 -53 -64 -15 -19 -41 -51 -57 -70 -32 -38 -82 -99 -160 -196 -51
-64 -98 -121 -158 -194 -20 -25 -41 -51 -46 -57 -63 -80 -193 -237 -214 -260
-15 -16 -27 -32 -27 -35 0 -3 -10 -17 -22 -31 -47 -50 -127 -153 -127 -162 0
-5 -3 -12 -9 -15 -22 -14 -62 -143 -66 -208 -13 -287 347 -473 559 -288 26 23
153 140 259 240 45 41 244 226 281 259 17 15 57 53 90 84 33 31 112 104 174
162 62 58 137 128 166 155 29 28 93 86 141 130 49 44 114 105 146 135 31 30
79 75 106 100 26 25 97 90 156 145 60 55 119 110 132 123 13 12 27 22 33 22 5
0 34 -24 64 -52 30 -29 97 -93 148 -142 52 -48 166 -157 254 -241 186 -178
232 -222 419 -399 76 -72 174 -165 217 -206 179 -172 573 -546 809 -770 30
-29 125 -119 210 -200 85 -81 184 -175 220 -209 92 -87 155 -116 250 -116 60
0 85 5 124 25 86 44 141 107 170 197 36 110 11 179 -124 343 -25 30 -51 61
-58 68 -7 8 -25 30 -40 50 -15 20 -34 44 -42 53 -8 9 -24 27 -35 40 -75 91
-120 145 -124 149 -4 3 -24 28 -46 55 -22 28 -45 56 -52 63 -7 7 -29 34 -50
60 -21 26 -42 52 -48 58 -5 6 -26 30 -45 54 -19 24 -40 48 -45 54 -6 6 -30 36
-55 66 -25 30 -47 57 -50 60 -3 3 -22 26 -43 52 -21 26 -43 53 -50 60 -7 7
-44 51 -82 98 -38 47 -74 90 -80 96 -5 6 -23 28 -40 49 -16 20 -35 42 -40 49
-10 10 -260 311 -354 425 -20 24 -48 58 -63 75 -14 17 -155 186 -312 374
l-285 344 36 31 c20 18 53 48 73 67 21 19 81 76 135 125 194 177 284 271 327
340 46 74 85 168 92 226 3 19 5 34 6 34 1 0 3 29 4 65 2 67 -14 163 -35 215
-7 17 -13 36 -15 44 -4 21 -75 133 -109 170 -48 53 -326 324 -496 483 -21 20
-39 39 -39 43 0 5 134 171 150 185 3 3 25 30 50 60 25 30 52 61 60 70 8 8 33
38 55 65 22 28 45 55 51 60 6 6 33 37 60 70 27 33 61 74 75 90 15 17 44 51 65
76 82 96 129 152 139 163 6 6 32 38 59 71 28 33 60 71 72 85 13 14 42 48 64
75 23 28 54 64 69 80 14 17 47 55 71 85 25 30 59 71 77 90 17 19 42 48 55 65
13 16 30 37 38 46 8 8 24 26 35 40 11 13 57 68 103 122 110 130 139 171 172
240 61 127 14 242 -145 349 -104 70 -192 79 -284 27 -47 -26 -135 -96 -201
-159 -9 -8 -51 -46 -94 -85 -43 -38 -88 -79 -100 -90 -146 -134 -204 -186
-222 -202 -12 -10 -63 -56 -115 -103 -51 -47 -103 -94 -115 -105 -118 -106
-272 -246 -325 -295 -15 -14 -55 -50 -89 -80 -34 -30 -74 -66 -89 -80 -38 -35
-134 -123 -225 -205 -43 -38 -101 -91 -129 -117 -29 -27 -55 -48 -59 -48 -6 0
-70 60 -288 270 -43 41 -156 149 -250 240 -95 91 -215 206 -266 255 -52 50
-94 90 -94 89 0 0 -50 47 -110 106 -61 58 -176 169 -257 246 -80 76 -176 168
-213 204 -37 36 -119 114 -181 174 -63 60 -199 190 -303 290 -104 99 -210 201
-236 226 -26 25 -97 93 -158 153 -62 59 -119 107 -127 107 -8 0 -15 5 -15 10
0 6 -6 10 -12 10 -7 0 -24 6 -38 13 -34 17 -136 19 -185 3z m2014 -3200 c-2
-2 -13 8 -23 22 l-19 27 24 -22 c12 -12 21 -24 18 -27z"/>
</g>
</svg>
