<svg id="smileybones_standard_small" data-name="smileybones standard small" xmlns="http://www.w3.org/2000/svg" viewBox="0 0 612 639"><title>smileybones-standard-small</title><polygon points="135 54 108 54 108 27 108 0 81 0 54 0 54 27 54 54 27 54 0 54 0 81 27 81 54 81 81 81 81 108 108 108 108 135 135 135 162 135 162 108 162 81 135 81 135 54" fill="#999"/><polygon points="585 54 558 54 558 27 558 0 531 0 504 0 504 27 504 54 477 54 477 81 450 81 450 108 450 135 477 135 504 135 504 108 531 108 531 81 558 81 585 81 612 81 612 54 585 54" fill="#999"/><polygon points="81 477 81 504 54 504 54 531 27 531 0 531 0 558 0 585 27 585 54 585 54 612 54 639 81 639 81 612 81 585 81 558 108 558 108 531 135 531 135 504 135 477 108 477 81 477" fill="#999"/><polygon points="558 531 558 504 531 504 531 477 504 477 477 477 477 504 477 531 504 531 504 558 531 558 531 585 531 612 531 639 558 639 558 612 558 585 585 585 612 585 612 558 612 531 585 531 558 531" fill="#999"/><rect x="108" y="135" width="27" height="27"/><rect x="81" y="108" width="27" height="27"/><polygon points="81 81 54 81 27 81 0 81 0 108 27 108 54 108 81 108 81 81"/><rect x="477" y="135" width="27" height="27"/><rect x="504" y="108" width="27" height="27"/><polygon points="585 81 558 81 531 81 531 108 558 108 585 108 612 108 612 81 585 81"/><rect x="135" y="504" width="27" height="27"/><rect x="108" y="531" width="27" height="27"/><polygon points="81 585 81 612 81 639 108 639 108 612 108 585 108 558 81 558 81 585"/><rect x="450" y="504" width="27" height="27"/><rect x="477" y="531" width="27" height="27"/><polygon points="504 585 504 612 504 639 531 639 531 612 531 585 531 558 504 558 504 585"/><circle cx="306" cy="324" r="252" fill="#ffe000"/><circle cx="306" cy="324" r="252" fill="none" stroke="#000" stroke-miterlimit="10" stroke-width="20"/><path d="M627.632,506.138c-21.267,42.83-86.8,78.6-158.93,78.6-73.978,0-137.666-34.761-158.929-77.592" transform="translate(-162 -117)" fill="none" stroke="#000" stroke-miterlimit="10" stroke-width="15"/><path d="M421.832,374.993c0,31.1-9.784,56.305-21.854,56.305s-21.854-25.208-21.854-56.305,9.784-56.306,21.854-56.306S421.832,343.9,421.832,374.993Zm117.355-56.306c-12.07,0-21.854,25.209-21.854,56.306s9.784,56.305,21.854,56.305,21.854-25.208,21.854-56.305S551.256,318.687,539.187,318.687ZM300.551,492.181c-18.238,6.736-27.531,22.9-23.232,30.234s14.785-5.461,33.023-12.2,37.321-4.858,33.022-12.2S318.789,485.445,300.551,492.181Zm293.365,5.84c-4.3,7.339,14.785,5.461,33.023,12.2s28.723,19.536,33.022,12.2-4.994-23.5-23.232-30.234S598.215,490.682,593.916,498.021Z" transform="translate(-162 -117)"/></svg>