<?xml version="1.0" encoding="utf-8"?>
<!-- Generator: Adobe Illustrator 22.1.0, SVG Export Plug-In . SVG Version: 6.00 Build 0)  -->
<svg version="1.1" id="Layer_1" xmlns="http://www.w3.org/2000/svg" xmlns:xlink="http://www.w3.org/1999/xlink" x="0px" y="0px"
	 viewBox="0 0 200.7 45" style="enable-background:new 0 0 200.7 45;" xml:space="preserve">
<style type="text/css">
	.st0{fill:#FFFFFF;}
	.st1{fill:#FFFFFF;stroke:#000000;stroke-width:0.1561;}
	.st2{fill:#FFFFFF;stroke:#000000;}
</style>
<g id="Layer_2_1_">
</g>
<g>
	<g id="Layer_1_1_">
		<path class="st0" d="M22.4,45C10,45,0,34.8,0,22.4S10,0,22.4,0s22.4,10,22.4,22.4C44.9,34.8,34.8,45,22.4,45z M22.4,2.5
			c-11,0-20,9-20,20s9,20,20,20s20-9,20-20C42.4,11.4,33.5,2.5,22.4,2.5z"/>
		<path class="st1" d="M17.2,24.9"/>
		<path class="st0" d="M22.4,42.3l-0.4-0.1c-0.5-0.2-13.2-5.8-13.2-15.9V8.1h27.2v18.4c0,9.7-12.6,15.3-13.2,15.6L22.4,42.3z
			 M10.8,9.9v16.3c0,8.1,9.7,13.1,11.8,14.1c2-1,11.8-6.1,11.8-13.7V10H10.8C10.8,10,10.8,9.9,10.8,9.9z"/>
		<path class="st0" d="M16.7,18.8l-0.2-0.1c0,0-1.5-0.9-2.3-1.5c-0.7-0.5-1.1-1.1-1.2-1.6c0-0.1,0-1.6,0-4.5v-0.6h7.7V11
			c0,2.9,0,4.4,0,4.5c0,0.6-0.4,1.1-1.1,1.6c-1,0.6-2.3,1.5-2.4,1.5L16.7,18.8z M14,11.5c0,1.6,0,3.7,0,3.9c0,0.1,0.2,0.5,0.6,0.7
			c0.6,0.4,1.5,1,2,1.2c0.5-0.2,1.5-0.9,2.1-1.2c0.2-0.1,0.6-0.4,0.6-0.6c0-0.2,0-2.2,0-3.9H14L14,11.5L14,11.5z"/>
		<path class="st0" d="M28.7,18.8l-0.2-0.1c0,0-1.5-0.9-2.3-1.5c-0.7-0.5-1.1-1.1-1.2-1.6c0-0.1,0-1.6,0-4.5v-0.6h7.7V11
			c0,2.9,0,4.4,0,4.5c0,0.6-0.4,1.1-1.1,1.6c-1,0.6-2.3,1.5-2.4,1.5L28.7,18.8z M26,11.5c0,1.6,0,3.7,0,3.9c0,0.1,0.2,0.5,0.6,0.7
			c0.6,0.4,1.5,1,2,1.2c0.5-0.2,1.5-0.9,2.1-1.2c0.2-0.1,0.6-0.4,0.6-0.6c0-0.2,0-2.2,0-3.9H26L26,11.5L26,11.5z"/>
		<rect x="9.3" y="19.1" class="st0" width="26.5" height="1.6"/>
		<g>
			<g>
				<path class="st0" d="M22.4,35.2c-0.5,0-0.7-0.4-0.9-0.5c-0.1-0.1-0.2-0.2-0.4-0.2c-0.7,0-1.2,0-1.8,0.1c-0.6,0-1.2,0.1-2.2,0.1
					s-1.7,0-1.7,0h-0.7V22.3h0.7c0.5,0,1.1,0,2.1,0c0.5,0,1-0.1,1.6-0.1c0.4,0,0.7-0.1,1.1-0.1c0.9-0.1,1.6,0.1,1.7,0.1
					c0.2,0,0.4,0.1,0.6,0.2c0.1-0.1,0.4-0.1,0.6-0.2c0,0,0.9-0.1,1.7-0.1c0.4,0,0.7,0.1,1.1,0.1c0.6,0.1,1.1,0.1,1.6,0.1
					c1,0,1.6,0,2.1,0h0.7v12.4h-0.7c0,0-0.7,0-1.7,0c-1,0-1.6-0.1-2.2-0.1c-0.6,0-1.1-0.1-1.8-0.1c-0.2,0-0.2,0-0.4,0.2
					C23.2,35,22.9,35.2,22.4,35.2z M21.2,33.1c0.6,0,1.1,0.2,1.4,0.5c0.2-0.2,0.7-0.5,1.4-0.5c0.7,0,1.4,0,2,0.1
					c0.6,0,1.2,0.1,2.1,0.1c0.4,0,0.6,0,0.9,0v-9.5c-0.4,0-0.9,0-1.4,0c-0.5,0-1.1-0.1-1.7-0.1c-0.4,0-0.7-0.1-1.1-0.1
					c-0.6-0.1-1.2,0-1.2,0c-0.1,0-0.2,0.1-0.2,0.1s0,0,0.1-0.1l-0.7-0.1l-0.7,0.1c0,0.1,0,0.1,0.1,0.1c0,0,0,0-0.2-0.1l0,0
					c0,0-0.6-0.1-1.2,0c-0.4,0-0.7,0.1-1.1,0.1c-0.6,0.1-1.2,0.1-1.7,0.1c-0.6,0-1,0-1.4,0v9.5c0.2,0,0.6,0,0.9,0
					c0.9,0,1.5-0.1,2.1-0.1C19.9,33.1,20.4,33.1,21.2,33.1z"/>
			</g>
		</g>
		<rect x="13.4" y="12.8" class="st0" width="6.4" height="1.1"/>
		<rect x="21.8" y="19.5" class="st0" width="1.5" height="21.8"/>
		<polygon class="st0" points="31.4,15.2 28.6,13.4 26,15.2 25.3,14.3 28.6,12 32,14.3 		"/>
		<path class="st2" d="M28.5,15.3"/>
		<rect x="17.2" y="25.1" class="st0" width="3.2" height="1.1"/>
		<rect x="17.2" y="27.7" class="st0" width="3.2" height="1.1"/>
		<rect x="17.2" y="30.3" class="st0" width="3.2" height="1.1"/>
		<rect x="24.3" y="25.1" class="st0" width="3.2" height="1.1"/>
		<rect x="24.3" y="27.7" class="st0" width="3.2" height="1.1"/>
		<rect x="24.3" y="30.3" class="st0" width="3.2" height="1.1"/>
	</g>
	<g id="Layer_3">
		<g>
			<path class="st0" d="M65.1,28.7c-1.1,0.7-3.1,1.1-4.3,1.1c-4.7,0-7.8-2.7-7.8-7.1c0-2.2,0.9-4,2.4-5.3c1.5-1.2,3.4-1.8,5.6-1.8
				c1.8,0,3.6,0.5,4.5,0.9c-0.2,1-0.4,2-0.4,2.9h-0.6v-1.5c0-0.5-0.7-0.9-1.7-1.2c-0.6-0.2-1.5-0.4-2.2-0.4c-3.7,0-5.6,2.7-5.6,6
				c0,3.9,2.6,6.4,6.5,6.4c1.5,0,3.1-0.5,3.9-1.2l0.1,0.2L65.1,28.7z"/>
			<path class="st0" d="M70,29.7c-2.4,0-4.2-2-4.2-4.5c0-2.9,1.8-5,5-5c2.4,0,4.4,2,4.4,4.4c0,2.9-2.1,5.2-5.2,5.2L70,29.7L70,29.7
				L70,29.7L70,29.7z M67.7,24.3c0,2.1,0.7,4.8,3.3,4.8c1.8,0,2.6-1.8,2.6-3.6c0-2.6-1.2-4.7-3.1-4.7C68.3,20.7,67.7,22.4,67.7,24.3
				z"/>
			<path class="st0" d="M76.8,22.9c0-0.6,0-1.1-0.1-1.2c-0.1-0.1-0.4-0.2-0.7-0.2h-0.7v-0.5c1.1-0.1,2.3-0.5,3.1-0.9l0.1,0.1v2l0,0
				l1.1-1.2c0.5-0.6,1.1-0.9,1.6-0.9c0.4,0,0.7,0.1,0.9,0.2l-0.1,2.3h-0.4c-0.2-0.5-0.6-0.9-1.4-0.9c-0.9,0-1.7,0.9-1.7,2.2v3.4
				c0,0.5,0,1,0.1,1.1c0.1,0.1,0.4,0.2,0.9,0.2h1v0.6c-1,0-1.8,0-2.8,0c-1,0-1.7,0-2.4,0v-0.6h0.9c0.4,0,0.5-0.1,0.6-0.2
				c0.1-0.2,0.1-0.6,0.1-1.1L76.8,22.9L76.8,22.9L76.8,22.9L76.8,22.9L76.8,22.9z"/>
			<path class="st0" d="M85.8,27.3c0,0.5,0,1,0.1,1.1c0.1,0.1,0.2,0.2,0.6,0.2h0.9v0.6c-0.7,0-1.5,0-2.4,0s-1.7,0-2.4,0v-0.6h0.9
				c0.4,0,0.5-0.1,0.6-0.2c0.1-0.2,0.1-0.6,0.1-1.1v-4.4c0-0.6,0-1.1-0.1-1.2c-0.1-0.1-0.4-0.2-0.7-0.2h-0.6v-0.5
				c1.1-0.1,2.3-0.5,3.1-0.9l0.1,0.1v1.7l0,0l1.5-1.2c0.5-0.4,0.9-0.5,1.6-0.5c2.3,0,3.2,1.2,3.2,3.4v3.8c0,0.5,0,1,0.1,1.1
				c0.1,0.1,0.2,0.2,0.6,0.2h0.9v0.6c-0.5,0-1.1,0-1.6,0c-0.5,0-1.1,0-1.6,0v-5.5c0-1.6-1-2.4-2.2-2.4c-1.2,0-2.4,1-2.4,1.8
				L85.8,27.3L85.8,27.3z"/>
			<path class="st0" d="M101.9,23.7c0,0.2,0,0.5,0,0.9c-1.2,0.2-2.3,0.2-3.6,0.2h-2.8c0,2.3,1.1,3.9,3.6,3.9c1,0,1.7-0.5,2.4-1
				l0.2,0.2l-0.4,0.6c-0.1,0.2-1.8,1.1-3.2,1.1c-2.9,0-4.5-1.8-4.5-4.5c0-2,0.5-3.1,1.5-3.8c0.4-0.2,0.7-0.6,1.2-0.7
				c0.7-0.4,1.2-0.5,2-0.5C100.3,20.1,101.9,21.5,101.9,23.7z M95.5,23.8V24c0.9,0.1,1.7,0.1,2.4,0.1c0.7,0,1.5,0,2.2,0
				c0-1.8-0.6-3.3-2.1-3.3C96.6,20.7,95.5,21.8,95.5,23.8z"/>
			<path class="st0" d="M103.7,17.2c0-0.5,0-0.9-0.5-0.9h-1.1v-0.5c1-0.1,2.1-0.4,3.1-0.7l0.1,0.1v12.1c0,0.5,0,1,0.1,1.1
				c0.1,0.1,0.2,0.2,0.6,0.2h0.9v0.6c-0.7,0-1.5,0-2.4,0s-1.7,0-2.4,0v-0.6h0.9c0.4,0,0.5-0.1,0.6-0.2c0.1-0.2,0.1-0.6,0.1-1.1
				L103.7,17.2L103.7,17.2z"/>
			<path class="st0" d="M108.7,17.2c0-0.5,0-0.9-0.5-0.9H107v-0.5c1-0.1,2.1-0.4,3.1-0.7l0.1,0.1v12.1c0,0.5,0,1,0.1,1.1
				c0.1,0.1,0.2,0.2,0.6,0.2h0.9v0.6c-0.7,0-1.5,0-2.4,0c-1,0-1.7,0-2.4,0v-0.6h0.9c0.4,0,0.5-0.1,0.6-0.2c0.1-0.2,0.1-0.6,0.1-1.1
				L108.7,17.2L108.7,17.2z"/>
			<path class="st0" d="M117.8,18.2c0-0.7,0-1.2-0.1-1.5s-0.4-0.2-0.9-0.2h-1v-0.6c1,0,2,0,2.9,0c0.9,0,1.8,0,2.8,0v0.6h-1
				c-0.5,0-0.7,0.1-0.9,0.2c-0.1,0.2-0.1,0.7-0.1,1.5v6.7c0,2.8,1.5,3.6,4,3.6c2.1,0,4-0.9,4-4v-6.3c0-0.7,0-1.2-0.1-1.5
				c-0.1-0.2-0.4-0.2-0.9-0.2h-0.9v-0.6c0.7,0,1.6,0,2.3,0c0.7,0,1.5,0,2.3,0v0.6h-0.9c-0.5,0-0.7,0.1-0.9,0.2
				c-0.1,0.2-0.1,0.7-0.1,1.5v5.6c0,4.2-1.6,5.9-5.5,5.9c-3.3,0-5.3-1-5.3-4.5L117.8,18.2L117.8,18.2L117.8,18.2z"/>
			<path class="st0" d="M133.2,27.3c0,0.5,0,1,0.1,1.1c0.1,0.1,0.2,0.2,0.6,0.2h0.9v0.6c-0.7,0-1.5,0-2.4,0c-1,0-1.7,0-2.4,0v-0.6
				h0.9c0.4,0,0.5-0.1,0.6-0.2c0.1-0.2,0.1-0.6,0.1-1.1v-4.4c0-0.6,0-1.1-0.1-1.2c-0.1-0.1-0.4-0.2-0.7-0.2h-0.7v-0.5
				c1.1-0.1,2.3-0.5,3.1-0.9l0.1,0.1v1.7l0,0l1.5-1.2c0.5-0.4,0.9-0.5,1.6-0.5c2.3,0,3.2,1.2,3.2,3.4v3.8c0,0.5,0,1,0.1,1.1
				c0.1,0.1,0.2,0.2,0.6,0.2h0.9v0.6c-0.5,0-1.1,0-1.6,0c-0.5,0-1.1,0-1.6,0v-5.5c0-1.6-1-2.4-2.2-2.4c-1.2,0-2.4,1-2.4,1.8
				L133.2,27.3L133.2,27.3L133.2,27.3L133.2,27.3z"/>
			<path class="st0" d="M144.9,27.3c0,0.5,0,1,0.1,1.1c0.1,0.1,0.2,0.2,0.6,0.2h0.9v0.6c-0.7,0-1.5,0-2.4,0c-1,0-1.7,0-2.4,0v-0.6
				h0.9c0.4,0,0.5-0.1,0.6-0.2c0.1-0.2,0.1-0.6,0.1-1.1v-4.4c0-0.6,0-1.1-0.1-1.2c-0.1-0.1-0.4-0.2-0.7-0.2h-0.7v-0.5
				c1.1-0.1,2.3-0.5,3.1-0.9l0.1,0.1L144.9,27.3L144.9,27.3L144.9,27.3L144.9,27.3z M145.1,16.9c0,0.6-0.5,1.1-1.1,1.1
				c-0.6,0-1.1-0.5-1.1-1.1s0.5-1.1,1.1-1.1C144.6,15.8,145.1,16.3,145.1,16.9z"/>
			<path class="st0" d="M152.3,27.3c-0.4,0.7-0.5,1.5-0.9,2.1h-1l-3.4-8c-0.1-0.2-0.2-0.6-0.6-0.6h-0.6v-0.5c0.7,0,1.5,0,2.3,0
				c0.7,0,1.5,0,2.3,0v0.5h-1c-0.4,0-0.5,0.1-0.5,0.4c0,0.1,0,0.4,0.1,0.7l2.3,5.6c0.4-0.9,0.9-1.8,1.2-2.7l0.9-2.1
				c0.2-0.6,0.4-1.1,0.4-1.5c0-0.4-0.1-0.5-0.5-0.5h-0.9v-0.5c0.6,0,1.2,0,1.8,0c0.6,0,1.2,0,1.8,0v0.5h-0.6c-0.5,0-0.9,0.7-1.1,1.4
				L152.3,27.3z"/>
			<path class="st0" d="M164.1,23.7c0,0.2,0,0.5,0,0.9c-1.2,0.2-2.3,0.2-3.6,0.2h-2.8c0,2.3,1.1,3.9,3.6,3.9c1,0,1.7-0.5,2.4-1
				l0.2,0.2l-0.4,0.6c-0.1,0.2-1.8,1.1-3.2,1.1c-2.9,0-4.5-1.8-4.5-4.5c0-2,0.5-3.1,1.5-3.8c0.4-0.2,0.7-0.6,1.2-0.7
				c0.7-0.4,1.2-0.5,2-0.5C162.5,20.1,164.1,21.5,164.1,23.7z M157.6,23.8V24c0.9,0.1,1.7,0.1,2.4,0.1s1.5,0,2.2,0
				c0-1.8-0.6-3.3-2.1-3.3C158.8,20.7,157.6,21.8,157.6,23.8z"/>
			<path class="st0" d="M166.3,22.9c0-0.6,0-1.1-0.1-1.2c-0.1-0.1-0.4-0.2-0.7-0.2h-0.7v-0.5c1.1-0.1,2.3-0.5,3.1-0.9l0.1,0.1v2l0,0
				l1.1-1.2c0.5-0.6,1.1-0.9,1.6-0.9c0.4,0,0.7,0.1,0.9,0.2l-0.1,2.3h-0.4c-0.2-0.5-0.6-0.9-1.4-0.9c-0.9,0-1.7,0.9-1.7,2.2v3.4
				c0,0.5,0,1,0.1,1.1c0.1,0.1,0.4,0.2,0.9,0.2h1v0.6c-1,0-1.8,0-2.8,0c-1,0-1.7,0-2.4,0v-0.6h0.9c0.4,0,0.5-0.1,0.6-0.2
				c0.1-0.2,0.1-0.6,0.1-1.1L166.3,22.9L166.3,22.9L166.3,22.9L166.3,22.9z"/>
			<path class="st0" d="M173,26.5v0.9c0,1.2,1.4,1.7,2.6,1.7c1.2,0,2.3-0.7,2.3-1.8c0-0.6-0.4-1.1-1-1.3c-0.9-0.2-2-0.5-2.9-0.7
				c-1-0.4-1.7-1-1.7-2.1c0-2.1,1.8-2.8,3.7-2.8c1,0,1.7,0.2,2.6,0.5c0,0.7-0.1,1.5-0.1,2.2h-0.5v-0.5c0-1-1.1-1.6-2.3-1.6
				c-1.7,0-2,1-2,1.6c0,0.9,0.6,1.4,2.1,1.6c2.3,0.4,3.4,1,3.4,2.4c0,2.2-2.2,3.3-4.3,3.3c-1,0-1.8-0.1-2.7-0.5
				c0.2-0.9,0.2-1.8,0.2-2.7h0.6L173,26.5L173,26.5L173,26.5L173,26.5z"/>
			<path class="st0" d="M183.2,27.3c0,0.5,0,1,0.1,1.1c0.1,0.1,0.2,0.2,0.6,0.2h0.9v0.6c-0.7,0-1.5,0-2.4,0c-1,0-1.7,0-2.4,0v-0.6
				h0.9c0.4,0,0.5-0.1,0.6-0.2c0.1-0.2,0.1-0.6,0.1-1.1v-4.4c0-0.6,0-1.1-0.1-1.2c-0.1-0.1-0.4-0.2-0.7-0.2h-0.7v-0.5
				c1.1-0.1,2.3-0.5,3.1-0.9l0.1,0.1L183.2,27.3L183.2,27.3L183.2,27.3L183.2,27.3z M183.4,16.9c0,0.6-0.5,1.1-1.1,1.1
				c-0.6,0-1.1-0.5-1.1-1.1s0.5-1.1,1.1-1.1C182.8,15.8,183.4,16.3,183.4,16.9z"/>
			<path class="st0" d="M184.5,22v-0.4l1.5-0.7v-1.3c0-0.5,0-1-0.1-1.6c0.7-0.2,1.4-0.5,1.7-0.7l0.2,0.2c-0.1,0.9-0.2,2-0.2,2.8V21
				l2.7-0.1l-0.1,1.1h-2.4v5.2c0,0.9,0.2,1.4,1.1,1.4c0.5,0,0.9-0.2,1.1-0.4l0.2,0.4l-1,1c-0.1,0.2-0.9,0.2-1.2,0.2
				c-1,0-2-0.5-2-2.1v-5.7L184.5,22z"/>
			<path class="st0" d="M198.3,22c0.1-0.2,0.1-0.4,0.1-0.5c0-0.4-0.2-0.5-0.9-0.5H197v-0.5c0.6,0,1.2,0,1.8,0c0.6,0,1.2,0,1.8,0V21
				h-0.5c-0.5,0-0.9,0.6-1.6,2.3l-3.9,9.2c-0.6,1.5-1.3,2.4-2.9,2.4c-0.4,0-0.7-0.1-1-0.2l0.5-1.5h0.2c0.2,0.2,0.7,0.5,1,0.5l0,0
				c1.1-0.1,1.7-1.7,2.1-2.6l0.5-1.2l-3.2-8c-0.4-0.7-0.6-1-1-1h-0.4v-0.5c0.7,0,1.5,0,2.3,0c0.7,0,1.5,0,2.3,0V21h-0.7
				c-0.4,0-0.6,0.1-0.6,0.5c0,0.2,0,0.5,0.1,0.7l2.2,5.4L198.3,22z"/>
		</g>
	</g>
</g>
</svg>
