<?xml version="1.0" encoding="utf-8"?>
<!-- Generator: Adobe Illustrator 19.2.1, SVG Export Plug-In . SVG Version: 6.00 Build 0)  -->
<svg version="1.1" id="Layer_1" xmlns="http://www.w3.org/2000/svg" xmlns:xlink="http://www.w3.org/1999/xlink" x="0px" y="0px"
	 viewBox="0 0 120 120" style="enable-background:new 0 0 120 120;" xml:space="preserve">
<style type="text/css">
	.st0{fill:#FFFFFF;}
</style>
<g>
	<path class="st0" d="M45.9,91.7c6.8,5.3,13.5,8.2,13.8,8.3l0.5,0.2l0.5-0.2c0.3-0.1,6.9-3,13.7-8.3c9.1-7.1,13.9-15.2,13.9-23.5
		l0-37.6l-56.4,0l0,37C31.9,76.1,36.7,84.5,45.9,91.7z M58.8,80.1c-0.3-0.1-0.6-0.2-1-0.2c0,0,0,0-0.1,0c-1.4,0-2.4,0.1-3.5,0.2
		c-1.1,0.1-2.2,0.2-3.8,0.2c-0.7,0-1.4,0-1.9,0V62.7c0.1,0,0.2,0,0.2,0c0.7,0,1.5,0,2.6,0c0.9,0,1.9-0.1,3-0.2
		c0.6-0.1,1.3-0.1,2-0.2c1.2-0.1,2.2,0.1,2.2,0.1c0.1,0,0.2,0.1,0.3,0.1C58.8,62.4,58.8,80.1,58.8,80.1z M85.6,68.2
		c0,15.4-18.9,25.8-24.5,28.6v-14c0.1-0.1,0.2-0.2,0.3-0.3c0.3-0.3,0.5-0.5,1-0.5c1.3,0,2.3,0.1,3.4,0.2c1.1,0.1,2.2,0.2,3.9,0.2
		c1.7,0,3,0,3,0l0.9,0l0-5.2h2.2v-2.8h-2.2l0-5.1h2.2v-2.8h-2.2l0-5.7l-1,0c-0.4,0-0.8,0-1.3,0c-0.7,0-1.5,0-2.5,0
		c-0.8,0-1.7-0.1-2.8-0.2c-0.6-0.1-1.3-0.1-2-0.2c-1.5-0.2-2.8,0.1-2.9,0.1c0,0,0,0-0.1,0V55h24.5L85.6,68.2z M61.1,80.2V62.5
		c0.1-0.1,0.3-0.1,0.5-0.2c0,0,1.1-0.2,2.3-0.1c0.7,0.1,1.4,0.1,2,0.2c1.1,0.1,2.1,0.2,3,0.2c0.9,0,1.6,0,2.3,0c0.2,0,0.4,0,0.5,0
		l0,17.7c-0.5,0-1.2,0-1.9,0c-1.6,0-2.7-0.1-3.8-0.2c-1.1-0.1-2.1-0.2-3.5-0.2C61.9,80,61.5,80.1,61.1,80.2z M34.6,33.3l51,0l0,19.1
		h-51L34.6,33.3z M34.6,55h24.3v5.3c-0.4-0.1-1.5-0.2-2.7-0.1c-0.7,0.1-1.4,0.1-2,0.2c-1.1,0.1-2,0.2-2.8,0.2c-1,0-1.8,0-2.5,0
		c-0.5,0-0.9,0-1.3,0l-1,0v5.1h-2.4v2.8h2.4v5.1h-2.4v2.8h2.4v5.7l0.9,0c0.1,0,1.4,0.1,3,0c1.7,0,2.9-0.1,3.9-0.2
		c1.1-0.1,2-0.2,3.3-0.2c0.5,0,0.7,0.2,0.9,0.5c0,0,0.1,0.1,0.1,0.1v14.1C53,93.8,34.6,83.5,34.6,67.6L34.6,55z"/>
	<path class="st0" d="M55.9,35.2H41.6v1c0,3.1,0,8.4,0,8.6c0.1,1.1,0.8,2.1,2.2,3c1.7,1.2,4.3,2.7,4.4,2.7l0.5,0.3l0.5-0.3
		c0.1-0.1,2.9-1.6,4.6-2.7c2-1.3,2.1-2.6,2.1-3c0-0.2,0-4.8,0-8.6V35.2z M43.6,37.2h10.2c0,0.8,0,1.7,0,2.6H43.6
		C43.6,38.9,43.6,38,43.6,37.2z M53.9,44.7c0,0.5-0.7,1-1.2,1.4c-1.2,0.8-3.1,1.9-4,2.4c-0.8-0.5-2.6-1.5-3.8-2.4
		c-0.8-0.5-1.3-1.1-1.3-1.5c0-0.1,0-1.3,0-2.9h10.2C53.9,43.3,53.9,44.5,53.9,44.7z"/>
	<path class="st0" d="M80.1,34.8H65.6v1c0,3.9,0,8.6,0,8.9c0.1,1.1,0.8,2.1,2.2,3c1.8,1.2,4.4,2.7,4.5,2.8l0.5,0.3l0.5-0.3
		c0.1-0.1,3-1.6,4.7-2.8c2.1-1.4,2.1-2.6,2.1-3c0-0.2,0-4.9,0-8.8L80.1,34.8z M78.1,44.5c0,0.5-0.7,1.1-1.2,1.4
		c-1.3,0.8-3.2,1.9-4.1,2.4c-0.9-0.5-2.6-1.6-3.9-2.4c-0.4-0.3-1.3-0.9-1.3-1.5c0-0.1,0-0.2,0-0.5l5-3.6l5.5,3.7
		C78.1,44.3,78.1,44.5,78.1,44.5z M72.6,37.8l-5,3.6c0-1.4,0-3.2,0-4.7h10.6c0,1.6,0,3.3,0,4.8L72.6,37.8z"/>
	<path class="st0" d="M63.7,66.5l1,0.1c0.6,0.1,1.2,0.1,1.7,0.1l2.9,0.1l0-2l-2.9-0.1c-0.4,0-0.9-0.1-1.5-0.1l-1-0.1
		c-0.3,0-0.5,0-0.7,0l0.1,2C63.4,66.4,63.6,66.4,63.7,66.5z"/>
	<path class="st0" d="M66.4,70.2c-0.4,0-0.9-0.1-1.5-0.1c-0.3,0-0.7-0.1-1-0.1c-0.3,0-0.5,0-0.7,0l0,2c0.1,0,0.3,0,0.5,0
		c0.4,0,0.7,0.1,1,0.1c0.6,0.1,1.1,0.1,1.6,0.1c0.6,0,1.5,0,2.2,0l0.8,0l0-2l-0.8,0C67.9,70.3,67,70.2,66.4,70.2z"/>
	<path class="st0" d="M66.4,75.8c-0.4,0-0.9-0.1-1.5-0.1c-0.3,0-0.7-0.1-1-0.1c-0.3,0-0.5,0-0.7,0l0.1,2c0.1,0,0.3,0,0.5,0
		c0.4,0,0.7,0.1,1,0.1c0.6,0.1,1.2,0.1,1.6,0.1l0.8,0c0.8,0,1.8,0,2.1,0.1l0-2c-0.3,0-1.3,0-2.1-0.1L66.4,75.8z"/>
	<path class="st0" d="M53.8,66.7c0.5,0,1-0.1,1.7-0.1c0.3,0,0.6-0.1,1-0.1c0.2,0,0.3,0,0.5,0l0-2c-0.2,0-0.4,0-0.7,0
		c-0.4,0-0.7,0.1-1,0.1c-0.6,0.1-1.1,0.1-1.5,0.1l-2.9,0.1l0,2L53.8,66.7z"/>
	<path class="st0" d="M55.3,70.1c-0.6,0.1-1.1,0.1-1.5,0.1l-2.9,0.1l0,2l2.9-0.1c0.5,0,1-0.1,1.7-0.1l0.9-0.1c0.2,0,0.3,0,0.4,0
		l0.1-2c-0.2,0-0.4,0-0.7,0L55.3,70.1z"/>
	<path class="st0" d="M55.3,75.6c-0.6,0.1-1.1,0.1-1.6,0.1c-0.9,0-2.4,0.1-2.8,0.1l0,2c0.4,0,1.9-0.1,2.9-0.1c0.5,0,1-0.1,1.7-0.1
		l1-0.1c0.1,0,0.3,0,0.4,0l0-2c-0.2,0-0.4,0-0.7,0L55.3,75.6z"/>
	<path class="st0" d="M9.3,60.3c2.5,0,4-1.6,4.2-4.4c0-0.5,0-1.2-0.1-1.9l0-0.2l-2.1,0l0.2,0.4c0.1,0.3,0.2,1,0.2,1.6
		c-0.1,1.4-1.2,2.3-2.7,2.2c-1.6-0.1-2.5-1.1-2.5-2.5c0-0.5,0.1-1,0.5-1.5l0.3-0.4l-2-0.3l-0.1,0.2c-0.3,0.6-0.4,1.3-0.5,1.9
		c-0.2,2.9,1.4,4.8,4.3,4.9C9.1,60.3,9.2,60.3,9.3,60.3z"/>
	<path class="st0" d="M9.7,50.5c0.6,0.2,1.1,0.2,1.6,0.2c1.9,0,3.3-1.1,3.9-3c0.3-1.2,0.2-2.2-0.3-3.2c-0.6-1-1.6-1.7-2.9-2.1
		c-0.5-0.2-1.1-0.2-1.5-0.2c-1.9,0-3.3,1.1-3.9,3C5.8,47.7,7,49.7,9.7,50.5z M8.3,45.8c0.3-1.1,1.2-1.3,1.9-1.3
		c0.3,0,0.7,0.1,1.1,0.2c0.9,0.3,1.6,0.7,1.9,1.3c0.2,0.4,0.3,0.8,0.1,1.3c-0.3,1.1-1.2,1.3-1.9,1.3c-0.4,0-0.7-0.1-1.1-0.2
		C9.1,48,7.9,47.1,8.3,45.8z"/>
	<path class="st0" d="M18.3,39.3l-2.9-1.6l0.1-0.2c0.3-0.5,0.5-0.5,0.9-0.4l2.9,0.4l1.1-2.1l-3.8-0.4c-0.3,0-0.5,0-0.7,0
		c0-0.8-0.4-1.6-1.2-2c-0.4-0.2-0.8-0.3-1.2-0.3c-1.4,0-2.1,1.4-2.8,2.7l-1,1.9l7.6,4.1L18.3,39.3z M13.8,36.6l-0.1,0.2l-1.4-0.7
		l0.1-0.2c0.3-0.6,0.7-1.2,1.3-0.9c0.2,0.1,0.3,0.2,0.4,0.4C14.2,35.8,14,36.3,13.8,36.6z"/>
	<polygon class="st0" points="23,31.7 19.1,28.5 24.7,29.8 26.2,27.9 19.6,22.4 18.2,24 22.2,27.3 16.6,26 15,27.9 21.7,33.4 	"/>
	<polygon class="st0" points="32.7,22.4 31.5,21 29.1,22.9 28,21.6 30.2,19.8 29,18.4 26.8,20.2 26,19.1 28.4,17.2 27.2,15.7 
		23.1,19 28.5,25.7 	"/>
	<polygon class="st0" points="39.8,18.1 38.9,16.5 36.2,18 32.9,12.1 31,13.2 35.2,20.7 	"/>
	<polygon class="st0" points="47.1,15.3 46.4,13.6 43.6,14.6 41.3,8.3 39.2,9 42.1,17.1 	"/>
	<path class="st0" d="M55.8,13.9c0.2,0,0.3,0,0.5,0c1.2-0.1,2.1-0.5,2.6-1.1c0.5-0.6,0.7-1.5,0.6-2.5l-0.4-5.4L56.9,5l0.4,4.9
		c0.1,1.7-0.6,2-1.2,2.1c-0.1,0-0.1,0-0.2,0c-0.5,0-1.2-0.2-1.4-1.9l-0.4-4.9l-2.2,0.2l0.4,5.4C52.7,12.8,53.8,13.9,55.8,13.9z"/>
	<polygon class="st0" points="65.7,8.8 67.5,14.1 70,14.5 71.1,5.9 69,5.6 68.3,10.7 66.5,5.3 64.1,5 62.9,13.5 65,13.8 	"/>
	<polygon class="st0" points="77.6,7.8 75.5,7.1 72.9,15.3 75,16 	"/>
	<polygon class="st0" points="88.4,12.6 86.5,11.6 82.3,15.9 83.2,10 81.1,8.9 79.8,18 82,19 	"/>
	<polygon class="st0" points="90.6,25 91.7,23.5 89.3,21.6 90.3,20.3 92.5,22 93.7,20.5 91.5,18.8 92.3,17.7 94.7,19.6 95.9,18.1 
		91.7,14.9 86.4,21.7 	"/>
	<path class="st0" d="M94.2,28.6l2.5-2.2l0.1,0.2c0.3,0.4,0.3,0.5,0.1,1l-1.4,2.6l1.6,1.8l1.7-3.4c0.1-0.1,0.2-0.4,0.2-0.7
		c0.7,0.3,1.6,0.2,2.3-0.4c1.9-1.6,0.4-3.3-0.7-4.6l-1.4-1.6L92.7,27L94.2,28.6z M99.3,24.1l0.1,0.2c0.3,0.4,0.6,0.8,0.6,1.1
		c0,0.2-0.1,0.3-0.3,0.4C99.6,26,99.4,26,99.3,26c-0.4,0-0.8-0.4-1-0.7l-0.1-0.2L99.3,24.1z"/>
	<path class="st0" d="M102.2,35.5c-0.4,0.3-1-0.2-1.2-0.6c-0.3-0.5-0.4-1-0.4-1.7l0-0.5l-2,0.9l0.1,0.4c0.2,0.7,0.3,1.1,0.7,1.8
		c0.7,1.2,1.6,1.8,2.6,1.8c0.5,0,0.9-0.1,1.4-0.4c1.5-0.9,1.3-2.3,1.1-3.4c-0.1-0.7-0.2-1.2,0.1-1.4c0.2-0.1,0.3-0.1,0.4-0.1
		c0.4,0,0.7,0.4,0.8,0.5c0.3,0.4,0.4,0.9,0.5,1.4l0.1,0.4l1.8-0.8l0-0.2c-0.1-0.6-0.4-1.2-0.8-1.9c-0.9-1.6-2.5-2.1-3.9-1.2
		c-1.5,0.9-1.3,2.3-1.1,3.3C102.5,34.8,102.6,35.3,102.2,35.5z"/>
	
		<rect x="102.5" y="39.6" transform="matrix(0.9259 -0.3777 0.3777 0.9259 -7.4559 43.3568)" class="st0" width="8.6" height="2.2"/>
	<polygon class="st0" points="111.2,46.2 104.7,47.8 105.2,49.9 111.8,48.3 112.3,50.5 114.1,50.1 112.5,43.5 110.7,44 	"/>
	<polygon class="st0" points="106.2,56.6 106.3,58.8 109.7,58.6 115.1,61.4 115,59 111.8,57.5 114.8,55.6 114.6,53 109.6,56.5 	"/>
	<polygon class="st0" points="11,76.4 12.8,75.9 12.1,73.3 13.4,72.9 14.2,75.7 16,75.1 14.6,70.3 6.3,72.7 6.9,74.8 10.3,73.8 	"/>
	<path class="st0" d="M18.7,83.6c0.3-1,0.2-2.1-0.3-3.2c-0.8-1.6-2-2.4-3.6-2.4c-0.7,0-1.5,0.2-2.3,0.6c-1.3,0.6-2.1,1.5-2.5,2.6
		c-0.3,1-0.2,2.1,0.3,3.2c0.8,1.5,2,2.4,3.6,2.4c0.7,0,1.5-0.2,2.3-0.6C17.5,85.5,18.4,84.7,18.7,83.6z M15.3,84.1
		c-0.5,0.3-1.1,0.4-1.6,0.4c-0.8,0-1.3-0.3-1.6-1c-0.2-0.5-0.3-0.9-0.1-1.3c0.2-0.6,0.8-1.2,1.6-1.6c0.5-0.2,1-0.4,1.5-0.4
		c0.8,0,1.3,0.3,1.6,1c0.2,0.5,0.3,0.9,0.1,1.3C16.6,83.1,16.1,83.7,15.3,84.1z"/>
	<path class="st0" d="M24.7,90.3l-3.9,3.1c-1,0.8-1.8,0.9-2.4,0.2c-0.2-0.3-0.3-0.6-0.3-0.9c0.1-0.4,0.4-0.9,1-1.4l3.9-3.1l-1.4-1.7
		l-4.3,3.4c-0.9,0.7-1.4,1.5-1.4,2.4c0,0.8,0.3,1.6,1,2.5c0.8,1.1,1.7,1.6,2.7,1.6c0.7,0,1.4-0.3,2.1-0.9L26,92L24.7,90.3z"/>
	<polygon class="st0" points="32,97.3 28.8,101.3 30,95.7 28.1,94.1 22.6,100.8 24.3,102.2 27.5,98.2 26.3,103.8 28.2,105.4 
		33.7,98.7 	"/>
	<path class="st0" d="M38.4,101.4l-2.2-1.1l-3.9,7.7l2.2,1.1c1.1,0.5,2,0.8,2.9,0.8c1.5,0,2.7-0.8,3.5-2.4
		C42.2,104.9,41.3,102.9,38.4,101.4z M38.8,106.5c-0.4,0.9-1.2,1.4-2.1,1.4c-0.4,0-0.7-0.1-1.1-0.3l-0.5-0.3l2.2-4.4l0.5,0.3
		c0.6,0.3,1,0.8,1.2,1.3C39.2,105.2,39.1,105.8,38.8,106.5z"/>
	<polygon class="st0" points="43.2,112.8 48.3,114.2 48.8,112.4 45.8,111.6 46.2,110 49,110.7 49.5,108.9 46.7,108.2 47,106.8 
		50.1,107.6 50.5,105.8 45.4,104.5 	"/>
	<path class="st0" d="M55.9,106.5l-2.5-0.1l-0.5,8.6l2.5,0.1c0.2,0,0.4,0,0.6,0c2.9,0,4.4-1.4,4.6-4.1c0.1-1.3-0.2-2.4-0.9-3.2
		C58.9,107.1,57.7,106.6,55.9,106.5z M55.8,113.3l-0.6,0l0.3-4.9l0.6,0c1.2,0.1,2.3,1,2.2,2.6C58.2,112.6,57,113.3,55.8,113.3z"/>
	<path class="st0" d="M68.2,105.8l-1.5,9.1l2.3-0.5l0.3-1.9l2.8-0.6l1.1,1.7l2.4-0.5l-5.1-7.7L68.2,105.8z M69.6,110.6l0.3-2.3
		l1.2,1.9L69.6,110.6z"/>
	<polygon class="st0" points="76.4,110.3 77.2,112.4 79.2,111.6 78.5,109.6 	"/>
	<path class="st0" d="M80.6,101.6l-2.2,1.2l4.1,7.6l2.2-1.2c2.9-1.6,3.6-3.6,2.3-6.1C85.7,100.5,83.5,100,80.6,101.6z M84.1,107.4
		l-0.5,0.3l-2.3-4.3l0.5-0.3c0.3-0.2,0.7-0.3,1.1-0.3c0.9,0,1.6,0.5,2.1,1.3C85.8,105.5,85.1,106.8,84.1,107.4z"/>
	<polygon class="st0" points="88.7,104.3 89.9,106.1 91.7,104.8 90.5,103 	"/>
	<polygon class="st0" points="92.1,93.2 91.7,96.6 93.6,96.9 93.8,95.5 97.9,99.6 99.5,98.1 93.4,91.9 	"/>
	<path class="st0" d="M103.8,88.7c-0.7-0.5-1.5-0.6-2.4-0.3c0-0.8-0.4-1.6-1-2c-1.1-0.8-2.5-0.3-3.6,1.1c-1,1.4-0.9,2.8,0.3,3.7
		c0.6,0.4,1.4,0.5,2.1,0.3c-0.1,0.9,0.2,1.6,0.9,2.1c0.5,0.4,1,0.5,1.5,0.5c0.9,0,1.7-0.5,2.5-1.5c0.6-0.8,0.9-1.6,0.8-2.4
		C104.8,89.7,104.4,89.2,103.8,88.7z M99.7,89.3c-0.3,0.2-0.6,0.4-0.9,0.4c-0.1,0-0.3,0-0.4-0.1c-0.4-0.3-0.2-0.8,0-1.1
		c0.1-0.2,0.3-0.3,0.5-0.3c0.1,0,0.3,0.1,0.5,0.2C99.7,88.6,99.8,89,99.7,89.3z M102.7,91.7c-0.3,0.4-0.8,0.5-1.2,0.2
		c-0.3-0.3-0.5-0.6-0.4-1.2c0.6-0.4,1.1-0.5,1.5-0.2c0.2,0.1,0.3,0.3,0.3,0.5C102.9,91.2,102.8,91.5,102.7,91.7z"/>
	<path class="st0" d="M107.7,80.3c-1.5-0.7-2.9-0.3-3.6,1.1c-0.2,0.4-0.3,0.8-0.2,1.2c-0.5-0.4-1-1.1-0.6-2c0.2-0.4,0.5-0.7,0.8-1
		l0.3-0.2l-1.6-1.1l-0.2,0.2c-0.4,0.4-0.8,0.9-1.1,1.5c-0.4,0.9-0.5,1.7-0.2,2.5c0.5,1.4,1.9,2.4,3,2.9c1,0.5,1.8,0.7,2.5,0.7
		c1.1,0,1.9-0.5,2.5-1.6C110.1,82.7,109.5,81.2,107.7,80.3z M107.7,83.5c-0.1,0.3-0.4,0.4-0.7,0.4c-0.2,0-0.5-0.1-0.7-0.2
		c-0.4-0.2-0.7-0.5-0.8-0.7c-0.1-0.2,0-0.3,0-0.5c0.1-0.3,0.3-0.4,0.7-0.4c0.2,0,0.5,0.1,0.8,0.2c0.4,0.2,0.6,0.4,0.7,0.7
		C107.8,83.2,107.7,83.4,107.7,83.5z"/>
	<path class="st0" d="M110.8,71.5c-1.7-0.5-3.1,0.3-3.6,1.9c0,0.2-0.1,0.3-0.1,0.4l-1-0.3l0.9-3l-1.7-0.5l-1.5,5l4.8,1.5l0-0.4
		c0-0.5,0.1-0.9,0.2-1.4c0.1-0.4,0.6-1.4,1.5-1.2c1,0.3,0.8,1.4,0.7,1.7c-0.2,0.6-0.5,1-0.8,1.4l-0.3,0.3l2,0.7l0.1-0.2
		c0.3-0.6,0.6-1.3,0.8-1.8c0.3-1,0.3-1.9-0.1-2.7C112.3,72.3,111.6,71.8,110.8,71.5z"/>
	<path class="st0" d="M16.3,60c0,24,19.5,43.6,43.5,43.6c24,0,43.5-19.5,43.5-43.6c0-24-19.5-43.5-43.5-43.5
		C35.9,16.4,16.3,36,16.3,60z M59.9,17.9c23.2,0,42,18.9,42,42c0,23.2-18.9,42-42,42c-23.2,0-42-18.9-42-42
		C17.8,36.8,36.7,17.9,59.9,17.9z"/>
	<path class="st0" d="M59.9,0.4C27,0.4,0.3,27.1,0.3,60c0,32.8,26.7,59.6,59.6,59.6c32.8,0,59.6-26.7,59.6-59.6
		C119.4,27.1,92.7,0.4,59.9,0.4z M59.9,118c-32,0-58-26-58-58c0-32,26-58,58-58c32,0,58,26,58,58C117.9,92,91.9,118,59.9,118z"/>
</g>
</svg>
